<?xml version="1.0" encoding="utf-8"?>
<!-- Generator: Adobe Illustrator 21.0.2, SVG Export Plug-In . SVG Version: 6.00 Build 0)  -->
<svg version="1.1" xmlns="http://www.w3.org/2000/svg" xmlns:xlink="http://www.w3.org/1999/xlink" x="0px" y="0px"
	 viewBox="0 0 1200 1200" style="enable-background:new 0 0 1200 1200;" xml:space="preserve">
<style type="text/css">
	.st0{display:none;}
	.st1{display:inline;}
	.st2{fill:#FFFFFF;}
	.st3{font-family:'Syncopate-Regular';}
	.st4{font-size:146.9665px;}
	.st5{font-size:116.8195px;}
</style>
<g id="Layer_1" class="st0">
	<g class="st1">
		<path d="M300.2,504.3v157.3c0,0-9.8,147,153.5,147c117.2,0,153.3,0,153.3,0v-305L300.2,504.3z"/>
	</g>
</g>
<g id="Layer_6">
	<polygon points="873.2,794.6 638.3,794.6 579.9,794.6 579.9,721.1 638.3,719.8 634.5,231.4 873.2,231.4 	"/>
	<polygon points="317.2,231.4 633.4,231.4 633.4,277.8 454.4,371.1 391.6,529.1 317.2,522.7 	"/>
</g>
<g id="Layer_7">
	<g>
		<ellipse cx="595.2" cy="518.5" rx="278" ry="276"/>
	</g>
</g>
<g id="Layer_2">
	<g>
		<circle class="st2" cx="593.7" cy="518.9" r="152"/>
	</g>
	<rect x="633.9" y="231.4" class="st2" width="111.8" height="290.7"/>
</g>
<g id="Layer_3">
	<circle cx="592.7" cy="516" r="42.4"/>
</g>
<g id="Layer_4">
	<text transform="matrix(1 0 0 1 19.6191 933.373)"><tspan x="0" y="0" class="st3 st4" style="text-decoration: underline;">Unleashed</tspan><tspan x="0" y="105.5" class="st3 st5">Development</tspan></text>
</g>
</svg>
